<?xml version="1.0" encoding="UTF-8"?>
<!DOCTYPE svg PUBLIC "-//W3C//DTD SVG 1.0//EN" "http://www.w3.org/TR/2001/REC-SVG-20010904/DTD/svg10.dtd">
<!-- Creator: CorelDRAW -->
<svg xmlns="http://www.w3.org/2000/svg" xml:space="preserve" width="50mm" height="10mm" version="1.0" style="shape-rendering:geometricPrecision; text-rendering:geometricPrecision; image-rendering:optimizeQuality; fill-rule:evenodd; clip-rule:evenodd"
viewBox="0 0 38421.34 7684.27"
 xmlns:xlink="http://www.w3.org/1999/xlink"
 xmlns:xodm="http://www.corel.com/coreldraw/odm/2003">
 <defs>
  <style type="text/css">
   <![CDATA[
    .fil0 {fill:none}
    .fil1 {fill:#D2CDE7;fill-rule:nonzero}
   ]]>
  </style>
 </defs>
 <g id="Слой_x0020_1">
  <metadata id="CorelCorpID_0Corel-Layer"/>
  <rect class="fil0" y="-0.06" width="38421.34" height="7684.27"/>
  <path class="fil1" d="M6930.52 1960.18l268.1 0c73.92,0 141.24,30.43 189.88,78.99 49.03,49.18 79.38,116.57 79.38,190.42l0 628.04c0,74.15 -30.35,141.7 -78.92,190.34 -49.1,48.49 -116.42,78.92 -190.34,78.92l-268.1 0 0 268.1c0,70 -27.43,134.17 -72.08,182.35 -23.51,25.67 -51.72,46.41 -83.3,61.17l-4.76 64.24c-4.69,48.64 -11.45,94.44 -20.06,137.55 -8.84,42.42 -33.73,77.84 -67.31,100.36 -33.81,22.98 -76.69,32.73 -119.57,24.13 -43.03,-8.61 -78.92,-34.19 -101.28,-67.78 -22.36,-33.81 -31.89,-76.23 -23.28,-118.72 6.92,-36.35 12.29,-71.69 15.68,-106.04l0.85 -7.99 -422.33 0c-73.85,0 -141.08,-30.28 -189.88,-78.92 -48.95,-49.1 -79.38,-116.42 -79.38,-190.34l0 -268.1 -268.03 0c-73.69,0 -141.31,-30.2 -190.11,-79.15 -48.8,-48.41 -79.15,-115.8 -79.15,-190.11l0 -11.99 -48.56 -25.9c-149.23,-91.29 -312.37,-137.09 -474.96,-137.09 -158.91,0 -317.98,43.57 -464.36,130.63l-15.68 9.3c-142.08,76.46 -289.01,155.68 -520.3,155.68 -43.8,0 -83.68,-17.75 -112.42,-46.49 -28.82,-28.82 -46.57,-68.7 -46.57,-112.5 0,-43.42 17.75,-82.99 46.57,-112.04 28.74,-29.2 68.62,-46.95 112.42,-46.95 93.9,0.54 169.28,-20.98 240.9,-52.33 -64.86,-15.06 -131.55,-22.82 -196.64,-22.75 -196.56,0 -377.6,65.55 -514.31,174.13 -133.86,106.35 -225.38,254.27 -246.74,421.41l-0.85 6.84c-48.49,248.82 -53.18,452.99 -8.3,634.26 44.42,178.97 138.85,340.64 288.54,506.7 69.39,76.92 112.42,174.74 142.7,287.39 27.82,103.43 44.88,219 62.93,342.72l1.23 8.38c62.32,423.79 136.7,900.75 754.44,977.44 8.61,1.08 16.98,0.46 24.59,-1.61 7.68,-2 15.14,-5.92 22.05,-11.3 6.61,-5.3 12.22,-11.76 15.83,-18.44 3.69,-6.61 6.22,-14.52 7.07,-22.59l117.03 -1064.27c7.38,-68.24 40.34,-128.48 88.06,-171.36 47.95,-42.88 111.19,-68.93 179.43,-68.93l44.57 0c68.31,0 131.48,26.05 179.43,68.93 47.87,42.96 80.68,103.12 88.06,171.36l117.03 1064.27c0.85,8.07 3.46,15.98 7.07,22.59 3.77,6.76 9.37,13.29 16.29,18.83 6.53,5.15 13.91,8.99 21.29,10.99 7.45,2.07 16.21,2.61 25.36,1.54 617.05,-82.07 683.9,-529.68 745.45,-943.86 37.19,-249.97 73.15,-489.95 210.93,-666.38l4.46 -5.69c31.58,-35.04 59.78,-68.54 84.3,-100.36 25.59,-33.12 48.8,-65.7 69.31,-97.82l10.45 -14.52c23.36,-29.2 55.33,-48.1 89.44,-55.56 39.96,-8.22 82.61,-1.77 119.26,21.75l12.76 9.14c29.74,23.36 49.33,55.86 56.94,90.83 8.38,39.57 1.77,82.38 -21.59,119.03 -26.28,41.11 -54.64,81.15 -85.06,120.64 -31.43,40.8 -64.78,80.61 -99.9,119.41 -32.81,36.42 -56.48,97.82 -75.38,172.59 -20.9,83.07 -35.58,181.43 -50.56,282.78l-1.23 8.68c-35.73,243.21 -76.54,519.3 -213.93,756.29 -83.6,144.23 -193.64,257.73 -331.5,340.87 -135.24,81.84 -296.84,134.17 -485.8,157.53 -50.49,6.07 -101.05,2.23 -148.77,-11.07 -48.03,-13.29 -93.52,-36.35 -133.63,-68.16 -39.73,-31.81 -72.39,-70.39 -96.28,-113.34 -24.28,-43.72 -39.73,-92.13 -45.34,-142.47l-91.06 -828.98 -91.29 828.98c-5.61,50.87 -21.21,99.05 -44.88,142.01 -24.28,43.57 -57.02,82.14 -97.05,113.8 -40.11,31.74 -85.45,54.87 -132.94,68.08 -46.95,13.29 -97.13,17.14 -147.77,10.99 -381.06,-42.8 -622.66,-205.86 -779.03,-439.39 -151.07,-225.53 -217.46,-512.54 -253.89,-817.91 -15.06,-103.43 -30.12,-204.09 -51.41,-288.7 -18.98,-75.08 -42.57,-136.47 -75.08,-172.51 -183.88,-203.48 -301.99,-409.11 -359.7,-639.72 -56.86,-226.99 -54.33,-475.43 1.84,-767.12 33.12,-264.65 185.19,-493.87 399.81,-649.86 206.17,-149.92 472.04,-232.68 746.14,-214.39 215.93,-103.66 474.35,-163.91 736.61,-180.5 232.22,-14.6 469.36,4.92 684.98,58.25 13.29,-41.19 36.19,-78.3 66.08,-108.27 48.64,-49.03 116.26,-79.38 190.34,-79.38l268.03 0 0 -267.95c0,-73.85 30.35,-141.16 78.92,-189.96 49.26,-49.03 116.49,-79.3 190.34,-79.3l628.19 0c73.92,0 141.16,30.43 189.88,78.92 49.03,49.18 79.38,116.49 79.38,190.34l0 267.95zm-5435.62 2244.81l-3.92 -42.19 -2.23 0.08 -8.3 -111.81 2 -0.23c-3.61,-66.16 -5.69,-133.86 -5.92,-203.1 -0.23,-71.46 1.54,-141.54 5.07,-210.78l5.23 -103.66 308.06 16.21 -0.08 1.69 290.31 14.98 -5.15 103.05c-3,61.17 -4.61,120.49 -4.46,177.66 0.08,56.33 2.07,115.19 5.61,176.74 4.92,89.83 16.14,178.74 25.9,268.1l-594.76 69.93c-5.07,-44.95 -17.37,-113.42 -17.37,-156.68zm167.9 778.26c-23.67,-70.39 -44.65,-139.39 -62.24,-205.17l-26.74 -99.28 578.24 -157.83 27.2 100.59c30.74,114.03 68.54,225.46 112.11,333.96l38.42 95.52 -555.03 225.15 -39.27 -96.13c-24.97,-61.47 -49.49,-127.64 -72.69,-196.79zm418.18 847.34c-37.27,-54.87 -74.54,-114.11 -110.96,-176.43l-52.25 -89.06 516.15 -304.68 52.71 89.98c28.82,49.56 59.71,98.36 91.52,145.69 32.97,49.33 68.24,98.44 104.81,146.23l62.55 81.84 -237.6 182.89 -1.08 -1.38 -237.14 182.73 -63.09 -82.61c-42.57,-55.86 -84.99,-114.8 -125.64,-175.2zm485.18 578.93l-82.07 -79.99 213.39 -221.69 1.15 1.15 203.1 -211.01c45.72,45.72 89.29,88.91 136.17,133.25l78.15 69.39 -201.1 221.84 -1.08 -0.92 -201.02 221.61 -76.54 -67.39 -70.16 -66.24zm659.69 504.01c-60.01,-35.5 -119.18,-73.08 -176.2,-111.96l-84.99 -57.94 334.88 -496.94 86.29 58.86c46.87,31.97 95.59,62.86 144.69,91.98 52.02,30.89 105.04,60.24 157.91,87.6l91.6 47.34 -273.41 532.67 -92.21 -47.34c-63.32,-32.58 -126.79,-67.62 -188.57,-104.28zm878.47 372.69c-66.78,-18.29 -133.86,-38.96 -202.17,-61.55l-99.05 -32.97 192.34 -567.25 97.59 32.27c59.63,19.67 116.19,37.12 169.59,51.87 53.25,14.75 110.04,28.66 170.97,41.5l100.74 21.29 -60.86 293.92 -1.23 -0.38 -60.32 293.31 -101.89 -21.52c-66.93,-14.14 -135.63,-31.12 -205.71,-50.49zm834.67 125.02l-207.17 -8.99 16.52 -308.75 1.77 0.08 15.68 -290.39 295.54 13.45 -17.44 599.07 -104.89 -4.46zm730.7 -52.18c-65.47,11.68 -133.17,21.75 -202.1,29.05l-101.89 10.76 -70.62 -594.84 104.51 -11.14c53.02,-5.61 109.12,-13.99 166.21,-24.13 59.32,-10.53 120.18,-23.51 179.89,-37.73l100.2 -24.05 140.7 582.39 -101.12 24.28c-73.31,17.52 -146.46,33.12 -215.77,45.41zm914.5 -290.62c-67.62,31.27 -137.39,60.71 -194.72,83.84l-95.67 38.5 -225.69 -555.19 96.82 -38.88c52.56,-21.05 106.27,-44.95 160.75,-70.93 51.87,-24.36 104.58,-51.48 157.37,-80.45l89.68 -49.26 143.31 256.19 -1.46 0.92 146.15 261.19 -83.22 52.33c-54.71,34.35 -123.87,69.62 -193.34,101.74zm672.14 -419.79l-122.79 95.13 -364.23 -475.81 231.99 -182.35 189.72 231.68 -1.15 0.85 189.42 231.76c-35.27,28.35 -92.29,68.08 -122.95,98.74zm565.1 -557.11c-45.49,55.94 -91.44,109.42 -137.78,160.22l-69.77 76.46 -228.45 -207.32 0.69 -0.77 -215.31 -195.49 70.08 -76.61c41.11,-45.03 79.61,-89.75 115.34,-133.86 36.88,-45.49 72.69,-92.13 107.27,-140.08l60.55 -83.91 486.41 349.17 -60.48 84.07c-41.34,57.4 -84.22,113.5 -128.56,168.13zm496.17 -811.07c-28.89,65.62 -59.4,129.79 -91.37,191.57l-47.57 91.44 -533.13 -273.1 47.64 -91.98c26.43,-51.02 51.87,-104.35 75.92,-158.68 23.51,-53.25 45.72,-108.19 66.08,-163.14l35.96 -97.28 562.95 207.48 -36.73 98.05c-24.97,66.39 -51.48,131.86 -79.76,195.64zm237.14 -755.59l-31.35 151.92 -301.61 -62.09 0.15 -1.15 -284.78 -58.32 56.33 -289.85 294.92 51.02 -0.31 1.84 295.31 50.87c-9.45,51.48 -20.52,104.28 -28.66,155.76zm63.47 -790.33c1.77,69.7 1.54,139.85 0.31,209.78l-2 104.58 -598.68 -16.98 1.92 -102.12c1.08,-59.63 1.08,-118.8 -0.46,-177.89 -1.69,-58.78 -4.99,-117.49 -10.22,-175.97l-9.22 -102.35 595.38 -54.64 10.22 102.43c6.84,70.39 10.99,141.7 12.76,213.16zm-153.99 -938.71c20.44,66.32 39.27,134.86 55.94,204.94l24.05 100.2 -582.77 141.24 -24.13 -101.2c-14.45,-60.71 -29.66,-117.03 -45.49,-168.59 -16.06,-52.79 -35.27,-109.19 -57.17,-168.36l-35.81 -96.59 562.03 -209.55 36.04 97.67c22.98,62.32 45.49,129.1 67.31,200.25zm-313.9 -726.93l75.15 135.09 -267.57 149.69 -0.77 -1.23 -253.89 141.93 -98.28 -170.51 -46.26 -86.68 254.04 -152.46 0.92 1.54 256.27 -153.92 80.38 136.55zm-468.05 -640.48c46.41,50.56 92.75,104.04 138.01,159.76l65.24 80.15 -464.28 378.91 -65.62 -80.68c-36.27,-44.57 -75.31,-89.75 -116.19,-134.4 -39.96,-43.49 -80.76,-85.53 -121.8,-125.1l-74.69 -72 416.41 -431.39 74.77 72.54c51.41,49.87 100.97,100.82 148.15,152.23zm-730.16 -609.52c59.71,37.58 118.03,76.92 175.43,117.65l84.14 59.63 -178.28 251.89 -1.08 -0.77 -168.21 237.44 -84.53 -60.01c-48.8,-34.73 -97.59,-67.62 -146.54,-98.59 -48.8,-30.81 -99.36,-60.86 -151.76,-89.83l-90.75 -50.26 288.62 -525.53 91.06 50.64c62.93,35.04 123.41,70.85 181.89,107.73zm-713.18 -346.25l146.69 53.02 -206.86 562.26 -278.17 -98.67 94.59 -284.32 1.08 0.31 94.59 -284.32 148.08 51.72zm-772.73 -179.74c70.85,8.3 140.85,18.6 209.55,30.74l101.89 17.98 -52.56 304.07 -1.61 -0.31 -49.64 286.85 -102.2 -17.9c-59.17,-10.37 -118.49,-19.36 -176.97,-26.05 -58.63,-6.76 -116.72,-11.99 -173.13,-15.06l-103.05 -5.84 15.45 -299.61 2 0.15 15.52 -299.3 103.74 5.99c71.77,4.07 142.39,10.3 211.01,18.29zm-947.09 14.98c69.85,-10.3 139.85,-18.83 208.24,-24.59l101.89 -8.76 28.74 307.37 -1 0.08 27.13 289.77 -104.2 8.91c-58.32,4.84 -117.88,12.06 -176.12,20.67 -56.79,8.38 -114.42,18.98 -171.13,31.27l-101.43 21.9 -63.32 -293.92 1 -0.15 -63.24 -293 102.43 -21.44c69.93,-14.75 140.7,-27.66 211.01,-38.11zm-768.35 203.94l144.77 -55.56 109.5 289.01 -1.54 0.61 103.12 272.02 -276.25 107.43 -225.92 -555.27c28.2,-11.22 125.56,-44.42 146.31,-58.25zm-702.57 369.23c58.94,-39.88 118.49,-77.69 178.2,-113.34l88.52 -53.1 158.91 264.26 -1.69 1.08 150 249.28 -88.98 53.33c-51.87,30.89 -101.66,62.47 -149.15,94.67 -46.72,31.58 -94.52,66.16 -143.39,103.43l-81.91 62.47 -364.93 -475.66 82.68 -62.93c57.79,-44.03 115.11,-85.45 171.74,-123.49zm-709.18 631.72c45.95,-53.41 93.59,-105.66 142.47,-155.99l71.77 -74.08 431.09 416.33 -72.39 74.77c-40.65,41.96 -80.3,85.45 -118.41,129.86 -38.11,44.49 -75.31,90.44 -111.19,137.32l-62.93 81.91 -476.81 -361.85 62.93 -82.68c45.57,-59.94 90.44,-115.65 133.48,-165.6zm-440.85 643.56l67.39 -126.18 524.99 288.39 -138.32 260.88 -533.67 -273.1 79.61 -150zm-298.46 749.37c17.29,-64.01 37.96,-131.63 61.63,-202.71l32.66 -97.97 292.62 97.21 -0.46 1.15 275.94 91.67 -32.58 98.05c-17.06,51.1 -34.12,107.5 -50.79,169.36 -15.91,58.78 -29.89,116.11 -41.34,171.36l-21.21 101.2 -587 -121.95 21.29 -101.51c14.75,-70.7 31.27,-139.24 49.26,-205.86zm5171.82 -96.82l378.37 0 0 -530.6 -378.37 0c-43.34,0 -83.3,-17.75 -112.19,-46.87 -28.74,-28.35 -46.8,-68.08 -46.8,-112.11l0 -378.45 -530.75 0 0 378.45c0,43.57 -17.75,83.14 -46.64,111.96 -29.12,29.28 -68.7,47.03 -112.34,47.03l-378.3 0 0 530.6 378.3 0c44.03,0 83.84,18.06 112.34,46.64 28.89,29.05 46.64,69 46.64,112.34l0 378.37 530.75 0 0 -378.37c0,-43.8 18.06,-83.84 46.64,-112.34 28.51,-28.59 68.47,-46.64 112.34,-46.64z"/>
  <path class="fil1" d="M11124.52 2522.05l0 -26.74 1261.37 0c320.82,0 574.55,25.51 760.82,75.84 185.58,50.41 347.56,129.48 485.88,237.9 137.78,108.43 247.43,246.82 328.43,415.8 80.99,168.36 121.18,357.09 121.18,564.95 0,200.25 -42.11,397.35 -126.25,591.15 -83.53,193.26 -197.72,360.32 -341.8,500.02 -144.77,140.31 -296.54,235.91 -456.6,287.62 -160.06,51.64 -406.88,77.76 -741.69,77.76l-1291.34 0 0 -26.82 33.2 0c66.32,0 109.65,-26.74 130.71,-80.99 21.05,-54.17 31.27,-152.38 31.27,-294.61l0 -2004.29c0,-149.23 -12.76,-239.75 -37.65,-271.02 -25.51,-31.2 -77.84,-46.57 -157.53,-46.57zm934.87 30.66l-422.17 0 0 2131.85c0,134.55 22.98,234.68 68.24,299.69 45.34,65.09 123.1,112.27 232.76,141.62 109.12,29.28 257.04,43.95 442.61,43.95 515.23,0 877.47,-132.02 1086.02,-396.66 208.47,-263.95 313.06,-552.27 313.06,-864.1 0,-367.31 -142.77,-684.9 -428.47,-953.31 -285.7,-268.49 -716.79,-403.04 -1292.03,-403.04z"/>
  <path id="_1" class="fil1" d="M14354.52 2522.05l0 -26.74 1733.26 0 0 378.76 -26.74 0c-37.65,-141.54 -68.85,-224.46 -94.36,-249.35 -26.2,-24.82 -88.68,-37.58 -188.8,-37.58l-910.66 0 0 1235.86 845.65 0c84.14,0 137.09,-7.68 159.37,-23.59 22.36,-15.29 34.43,-38.27 35.73,-68.24l26.82 0 0 260.19 -26.82 0c-6.38,-36.35 -21.05,-60.55 -44.03,-73.31 -22.9,-12.14 -65.62,-18.52 -128.79,-18.52l-867.94 0 0 849.42c0,128.79 12.14,221.31 35.73,277.4 23.59,56.71 61.24,92.44 113.5,106.5 51.72,14.68 130.09,21.67 234.68,21.67l487.26 0c154.91,0 253.81,-5.07 297.15,-15.98 42.72,-10.14 79.07,-31.81 109.04,-63.09 29.97,-31.89 53.56,-100.74 69.54,-207.94l26.74 0 0 378.83 -1886.33 0 0 -26.82c63.78,-3.77 112.27,-15.91 145.39,-36.35 33.2,-20.36 49.79,-73.92 49.79,-160.06l0 -2226.21c0,-100.74 -8.99,-172.2 -26.2,-213.01 -17.83,-41.42 -73.92,-61.86 -168.98,-61.86z"/>
  <path id="_2" class="fil1" d="M18693.52 2495.31l527.99 0 0 26.74c-79.07,2.61 -133.94,19.83 -164.52,51.72 -30.58,31.2 -45.95,98.2 -45.95,200.87l0 2506.15 -2200.08 -2337.79 0 2035.49c0,65.09 5.15,112.88 14.68,144.16 10.22,31.27 24.28,52.33 42.11,63.16 18.52,11.45 65.09,22.28 138.39,33.73l0 26.82 -524.22 0 0 -26.82c94.36,0 153.07,-16.52 176.05,-50.33 22.9,-33.81 34.43,-114.19 34.43,-241.06l0 -1862.74c0,-162.6 -22.98,-295.92 -68.24,-399.2 -45.26,-103.97 -149.84,-151.76 -314.36,-144.16l0 -26.74 515.84 0 2066.84 2195.63 0 -1943.12c0,-104.58 -18.52,-168.36 -55.48,-191.26 -37.65,-22.98 -85.45,-34.5 -143.47,-34.5l0 -26.74z"/>
  <path id="_3" class="fil1" d="M21665.87 2403.49l-130.09 329.04 -26.82 0c5.15,-20.44 7.68,-47.18 7.68,-80.99 0,-29.35 -10.22,-47.8 -31.27,-56.1 -20.36,-8.3 -52.94,-12.14 -98.2,-12.14l-719.94 0 0 2355.69c0,97.59 7.61,163.91 23.59,199.56 15.29,35.12 36.96,57.4 63.78,67.01 26.74,9.53 70.77,13.99 130.71,13.99l0 26.82 -746.14 0 0 -26.82c93.13,-6.38 151.76,-24.21 175.43,-54.17 23.59,-29.97 35.04,-91.83 35.04,-186.88l0 -2395.19 -688.74 0c-69.47,0 -114.8,3.84 -136.47,12.14 -21.05,8.3 -31.2,28.66 -31.2,61.17 0,16.6 4.46,42.11 14.68,75.92l-26.82 0 -130.09 -329.04 26.82 0c22.28,43.34 44.57,69.47 66.32,78.46 21.67,8.91 68.85,13.37 140.93,13.37l1828.24 0c72.08,0 123.72,-4.46 155.61,-13.37 31.89,-8.99 55.48,-35.12 70.16,-78.46l26.82 0z"/>
  <path id="_4" class="fil1" d="M22952.14 3979.91l-811.23 0 -412.57 1040.07c-28.66,74.61 -43.34,120.49 -43.34,137.7 0,41.5 30.58,61.86 91.83,61.86l0 26.82 -409.42 0 0 -26.82c54.87,0 100.74,-13.37 138.39,-40.11 36.96,-26.82 78.46,-96.36 123.03,-208.55l999.95 -2517.67 49.72 0 977.59 2431.61c0,12.76 24.9,71.39 75.31,176.58 50.33,105.27 126.87,158.14 230.22,158.14l0 26.82 -642.87 0 0 -26.82c58.71,0 88.06,-22.9 88.06,-68.85 0,-31.2 -14.68,-80.99 -43.42,-149.84 -4.46,-5.07 -8.91,-12.76 -12.76,-24.21 -2.54,-12.14 -4.46,-18.52 -5.69,-18.52l-392.82 -978.21zm-780.57 -76.54l745.45 0 -373.07 -938.1 -372.38 938.1z"/>
  <path id="_5" class="fil1" d="M24026.71 5246.36l0 -26.82c86.68,0 142.16,-15.91 168.29,-48.41 25.51,-32.58 38.27,-88.06 38.27,-166.44l0 -2253.03c0,-79.69 -10.14,-137.09 -29.97,-172.82 -20.36,-35.04 -80.3,-54.17 -180.43,-56.79l0 -26.74 738.46 0 0 26.74c-68.24,0 -116.11,8.99 -143.47,26.2 -27.43,17.21 -45.34,38.27 -54.25,61.86 -8.3,23.59 -12.76,77.15 -12.76,160.68l0 1931.59c0,165.83 39.57,282.47 119.26,350.1 79.69,68.24 216.16,102.05 409.42,102.05l336.03 0c161.98,0 280.63,-40.19 355.86,-119.87 75.23,-79.76 117.34,-229.61 126.25,-450.22l26.82 0 0 661.92 -1897.78 0z"/>
  <path id="_6" class="fil1" d="M26100.54 5246.36l0 -26.82c86.68,0 142.16,-15.91 168.29,-48.41 25.51,-32.58 38.27,-88.06 38.27,-166.44l0 -2253.03c0,-79.69 -10.14,-137.09 -29.97,-172.82 -20.36,-35.04 -80.3,-54.17 -180.43,-56.79l0 -26.74 738.46 0 0 26.74c-68.24,0 -116.11,8.99 -143.47,26.2 -27.43,17.21 -45.34,38.27 -54.25,61.86 -8.3,23.59 -12.76,77.15 -12.76,160.68l0 1931.59c0,165.83 39.57,282.47 119.26,350.1 79.69,68.24 216.16,102.05 409.42,102.05l336.03 0c161.98,0 280.63,-40.19 355.86,-119.87 75.23,-79.76 117.34,-229.61 126.25,-450.22l26.82 0 0 661.92 -1897.78 0z"/>
  <path id="_7" class="fil1" d="M29732.28 3979.91l-811.23 0 -412.57 1040.07c-28.66,74.61 -43.34,120.49 -43.34,137.7 0,41.5 30.58,61.86 91.83,61.86l0 26.82 -409.42 0 0 -26.82c54.87,0 100.74,-13.37 138.39,-40.11 36.96,-26.82 78.46,-96.36 123.03,-208.55l999.95 -2517.67 49.72 0 977.59 2431.61c0,12.76 24.9,71.39 75.31,176.58 50.33,105.27 126.87,158.14 230.22,158.14l0 26.82 -642.87 0 0 -26.82c58.71,0 88.06,-22.9 88.06,-68.85 0,-31.2 -14.68,-80.99 -43.42,-149.84 -4.46,-5.07 -8.91,-12.76 -12.76,-24.21 -2.54,-12.14 -4.46,-18.52 -5.69,-18.52l-392.82 -978.21zm-780.57 -76.54l745.45 0 -373.07 -938.1 -372.38 938.1z"/>
  <path id="_8" class="fil1" d="M33171.45 2495.31l527.99 0 0 26.74c-79.07,2.61 -133.94,19.83 -164.52,51.72 -30.58,31.2 -45.95,98.2 -45.95,200.87l0 2506.15 -2200.08 -2337.79 0 2035.49c0,65.09 5.15,112.88 14.68,144.16 10.22,31.27 24.28,52.33 42.11,63.16 18.52,11.45 65.09,22.28 138.39,33.73l0 26.82 -524.22 0 0 -26.82c94.36,0 153.07,-16.52 176.05,-50.33 22.9,-33.81 34.43,-114.19 34.43,-241.06l0 -1862.74c0,-162.6 -22.98,-295.92 -68.24,-399.2 -45.26,-103.97 -149.84,-151.76 -314.36,-144.16l0 -26.74 515.84 0 2066.84 2195.63 0 -1943.12c0,-104.58 -18.52,-168.36 -55.48,-191.26 -37.65,-22.98 -85.45,-34.5 -143.47,-34.5l0 -26.74z"/>
  <path id="_9" class="fil1" d="M33974.3 2522.05l0 -26.74 1261.37 0c320.82,0 574.55,25.51 760.82,75.84 185.58,50.41 347.56,129.48 485.88,237.9 137.78,108.43 247.43,246.82 328.43,415.8 80.99,168.36 121.18,357.09 121.18,564.95 0,200.25 -42.11,397.35 -126.25,591.15 -83.53,193.26 -197.72,360.32 -341.8,500.02 -144.77,140.31 -296.54,235.91 -456.6,287.62 -160.06,51.64 -406.88,77.76 -741.69,77.76l-1291.34 0 0 -26.82 33.2 0c66.32,0 109.65,-26.74 130.71,-80.99 21.05,-54.17 31.27,-152.38 31.27,-294.61l0 -2004.29c0,-149.23 -12.76,-239.75 -37.65,-271.02 -25.51,-31.2 -77.84,-46.57 -157.53,-46.57zm934.87 30.66l-422.17 0 0 2131.85c0,134.55 22.98,234.68 68.24,299.69 45.34,65.09 123.1,112.27 232.76,141.62 109.12,29.28 257.04,43.95 442.61,43.95 515.23,0 877.47,-132.02 1086.02,-396.66 208.47,-263.95 313.06,-552.27 313.06,-864.1 0,-367.31 -142.77,-684.9 -428.47,-953.31 -285.7,-268.49 -716.79,-403.04 -1292.03,-403.04z"/>
 </g>
</svg>
